<svg width="16" height="16" viewBox="0 0 16 16" fill="none" xmlns="http://www.w3.org/2000/svg">
<path d="M2.68945 10.1118V8.61377H5.03809C5.58822 8.61377 6.01562 8.47412 6.32031 8.19482C6.62923 7.9113 6.78369 7.50928 6.78369 6.98877V6.97607C6.78369 6.45557 6.62923 6.05566 6.32031 5.77637C6.01562 5.49707 5.58822 5.35742 5.03809 5.35742H2.68945V3.84033H5.50781C6.15104 3.84033 6.71387 3.97152 7.19629 4.23389C7.67871 4.49202 8.05322 4.85596 8.31982 5.32568C8.59066 5.79541 8.72607 6.34342 8.72607 6.96973V6.98242C8.72607 7.61296 8.59066 8.16309 8.31982 8.63281C8.05322 9.10254 7.67871 9.46647 7.19629 9.72461C6.71387 9.98275 6.15104 10.1118 5.50781 10.1118H2.68945ZM1.73096 13V3.84033H3.64795V13H1.73096Z" fill="#F782D2"/>
<path d="M11.5 13.1626C10.873 13.1626 10.3311 13.0278 9.87402 12.7583C9.41699 12.4858 9.06396 12.1006 8.81494 11.6025C8.56885 11.1045 8.4458 10.5142 8.4458 9.83154V9.82275C8.4458 9.13721 8.57031 8.54688 8.81934 8.05176C9.07129 7.55371 9.42578 7.16992 9.88281 6.90039C10.3398 6.63086 10.8789 6.49609 11.5 6.49609C12.124 6.49609 12.6631 6.63086 13.1172 6.90039C13.5742 7.16992 13.9272 7.55371 14.1763 8.05176C14.4253 8.5498 14.5498 9.14014 14.5498 9.82275V9.83154C14.5498 10.5142 14.4253 11.1045 14.1763 11.6025C13.9302 12.1006 13.5786 12.4858 13.1216 12.7583C12.6646 13.0278 12.124 13.1626 11.5 13.1626ZM11.5 12.0376C11.8428 12.0376 12.1416 11.9468 12.3965 11.7651C12.6514 11.5835 12.8477 11.3271 12.9854 10.9961C13.126 10.665 13.1963 10.2769 13.1963 9.83154V9.82275C13.1963 9.37451 13.126 8.98633 12.9854 8.6582C12.8477 8.32715 12.6514 8.07227 12.3965 7.89355C12.1416 7.71191 11.8428 7.62109 11.5 7.62109C11.1572 7.62109 10.8584 7.71191 10.6035 7.89355C10.3486 8.07227 10.1509 8.32715 10.0103 8.6582C9.86963 8.98633 9.79932 9.37451 9.79932 9.82275V9.83154C9.79932 10.2769 9.86816 10.665 10.0059 10.9961C10.1465 11.3271 10.3428 11.5835 10.5947 11.7651C10.8496 11.9468 11.1514 12.0376 11.5 12.0376Z" fill="#F782D2"/>
</svg>
